<?xml version="1.0"?>

<svg version="1.1" id="Layer_1" xmlns="http://www.w3.org/2000/svg" xmlns:xlink="http://www.w3.org/1999/xlink" x="0px" y="0px" viewBox="0 0 480.04 217.23" style="enable-background:new 0 0 480.04 217.23;" xml:space="preserve">

<g>
&#x9;<g>
&#x9;&#x9;
&#x9;&#x9;&#x9;<linearGradient id="SVGID_00000101809364472507669340000017771338458743526584_" gradientUnits="userSpaceOnUse" x1="-2299.0232" y1="-2909.4802" x2="-2292.0398" y2="-2744.6729" gradientTransform="matrix(6.123234e-17 1 -1 6.123234e-17 -2720.3567 2396.679)">
&#x9;&#x9;&#x9;<stop offset="0" style="stop-color:#007AF4"></stop>
&#x9;&#x9;&#x9;<stop offset="0.0543" style="stop-color:#0075F4"></stop>
&#x9;&#x9;&#x9;<stop offset="0.1148" style="stop-color:#0068F4"></stop>
&#x9;&#x9;&#x9;<stop offset="0.1784" style="stop-color:#0052F4"></stop>
&#x9;&#x9;&#x9;<stop offset="0.2436" style="stop-color:#0033F4"></stop>
&#x9;&#x9;&#x9;<stop offset="0.285" style="stop-color:#001BF4"></stop>
&#x9;&#x9;&#x9;<stop offset="0.6982" style="stop-color:#0000D7;stop-opacity:0"></stop>
&#x9;&#x9;</linearGradient>
&#x9;&#x9;<path style="fill:url(#SVGID_00000101809364472507669340000017771338458743526584_);" d="M70.46,185.04&#xA;&#x9;&#x9;&#x9;c45.51,0,82.4-36.89,82.4-82.4s-36.89-82.4-82.4-82.4V185.04z"></path>
&#x9;&#x9;
&#x9;&#x9;&#x9;<linearGradient id="SVGID_00000052804185971940444030000011121526260370569371_" gradientUnits="userSpaceOnUse" x1="-4034.845" y1="-928.8874" x2="-4034.845" y2="-867.1728" gradientTransform="matrix(6.123234e-17 1 -1 6.123234e-17 -807.7266 4137.4907)">
&#x9;&#x9;&#x9;<stop offset="0" style="stop-color:#2330E1"></stop>
&#x9;&#x9;&#x9;<stop offset="0.0439" style="stop-color:#2338E1"></stop>
&#x9;&#x9;&#x9;<stop offset="0.141" style="stop-color:#2343E1"></stop>
&#x9;&#x9;&#x9;<stop offset="0.2436" style="stop-color:#2347E1"></stop>
&#x9;&#x9;&#x9;<stop offset="0.4074" style="stop-color:#1F3EE0;stop-opacity:0.8051"></stop>
&#x9;&#x9;&#x9;<stop offset="0.6726" style="stop-color:#1326DC;stop-opacity:0.4895"></stop>
&#x9;&#x9;&#x9;<stop offset="1" style="stop-color:#0000D7;stop-opacity:0.1"></stop>
&#x9;&#x9;</linearGradient>
&#x9;&#x9;<circle style="fill:url(#SVGID_00000052804185971940444030000011121526260370569371_);" cx="81.24" cy="102.65" r="25.07"></circle>
&#x9;</g>
&#x9;<g>
&#x9;&#x9;<path class="st0" d="M198.52,67.99v60.91h23.74v9.29H187v-70.2H198.52z"></path>
&#x9;&#x9;<path class="st0" d="M282.25,138.2h-11.52v-6.67c-3.64,4.75-9.9,7.48-16.46,7.48c-13.03,0-22.93-8.18-22.93-23.74V82.54h11.41&#xA;&#x9;&#x9;&#x9;v31.01c0,10.2,5.56,15.46,13.94,15.46c8.49,0,14.04-5.25,14.04-15.46V82.54h11.52V138.2z"></path>
&#x9;&#x9;<path class="st0" d="M336.9,107.08c0-10.2-5.55-15.45-13.94-15.45c-8.49,0-14.04,5.25-14.04,15.45v31.11H297.4V82.54h11.52v6.36&#xA;&#x9;&#x9;&#x9;c3.74-4.55,9.9-7.27,16.57-7.27c13.03,0,22.83,8.18,22.83,23.74v32.83H336.9V107.08z"></path>
&#x9;&#x9;<path class="st0" d="M385.39,81.63c9.39,0,15.86,4.44,19.29,8.99v-8.08h11.62v55.66h-11.62v-8.28c-3.54,4.75-10.2,9.19-19.5,9.19&#xA;&#x9;&#x9;&#x9;c-14.44,0-26.06-11.82-26.06-28.99C359.12,92.94,370.74,81.63,385.39,81.63z M387.81,91.63c-8.59,0-16.87,6.46-16.87,18.48&#xA;&#x9;&#x9;&#x9;c0,12.02,8.28,18.99,16.87,18.99c8.69,0,16.87-6.77,16.87-18.79C404.68,98.4,396.5,91.63,387.81,91.63z"></path>
&#x9;</g>
&#x9;<g>
&#x9;&#x9;<path class="st0" d="M258.92,159.04c1.56,0,3.05,0.73,3.86,1.84v-5.61h3.03v15.8h-3.03v-1.75c-0.7,1.09-2.03,1.94-3.88,1.94&#xA;&#x9;&#x9;&#x9;c-3.01,0-5.4-2.46-5.4-6.15C253.49,161.41,255.88,159.04,258.92,159.04z M259.66,161.67c-1.6,0-3.12,1.2-3.12,3.44&#xA;&#x9;&#x9;&#x9;s1.52,3.52,3.12,3.52c1.64,0,3.14-1.24,3.14-3.48S261.31,161.67,259.66,161.67z"></path>
&#x9;&#x9;<path class="st0" d="M268.41,156.07c0-0.98,0.77-1.75,1.84-1.75c1.04,0,1.83,0.77,1.83,1.75c0,0.98-0.79,1.75-1.83,1.75&#xA;&#x9;&#x9;&#x9;C269.18,157.82,268.41,157.05,268.41,156.07z M268.73,159.23h2.99v11.83h-2.99V159.23z"></path>
&#x9;&#x9;<path class="st0" d="M279.3,159.04c1.86,0,3.2,0.85,3.91,1.88v-1.69h3.01v11.91c0,3.2-1.96,5.74-5.85,5.74&#xA;&#x9;&#x9;&#x9;c-3.33,0-5.66-1.67-5.96-4.38h2.97c0.3,1.07,1.41,1.77,2.9,1.77c1.64,0,2.92-0.94,2.92-3.14v-1.83c-0.7,1.02-2.05,1.94-3.91,1.94&#xA;&#x9;&#x9;&#x9;c-3.01,0-5.4-2.46-5.4-6.15C273.9,161.41,276.29,159.04,279.3,159.04z M280.06,161.67c-1.6,0-3.12,1.2-3.12,3.44&#xA;&#x9;&#x9;&#x9;s1.52,3.52,3.12,3.52c1.64,0,3.14-1.24,3.14-3.48S281.71,161.67,280.06,161.67z"></path>
&#x9;&#x9;<path class="st0" d="M288.81,156.07c0-0.98,0.77-1.75,1.84-1.75c1.04,0,1.83,0.77,1.83,1.75c0,0.98-0.79,1.75-1.83,1.75&#xA;&#x9;&#x9;&#x9;C289.58,157.82,288.81,157.05,288.81,156.07z M289.13,159.23h2.99v11.83h-2.99V159.23z"></path>
&#x9;&#x9;<path class="st0" d="M295.54,161.69h-1.41v-2.46h1.41v-2.92h3.01v2.92h2.65v2.46h-2.65v5.72c0,0.79,0.32,1.13,1.26,1.13h1.39v2.52&#xA;&#x9;&#x9;&#x9;h-1.88c-2.26,0-3.78-0.96-3.78-3.67V161.69z"></path>
&#x9;&#x9;<path class="st0" d="M307.98,159.04c1.9,0,3.2,0.9,3.91,1.88v-1.69h3.01v11.83h-3.01v-1.73c-0.71,1.03-2.05,1.92-3.93,1.92&#xA;&#x9;&#x9;&#x9;c-2.99,0-5.38-2.46-5.38-6.15C302.58,161.41,304.97,159.04,307.98,159.04z M308.75,161.67c-1.6,0-3.12,1.2-3.12,3.44&#xA;&#x9;&#x9;&#x9;s1.52,3.52,3.12,3.52c1.64,0,3.14-1.24,3.14-3.48S310.39,161.67,308.75,161.67z"></path>
&#x9;&#x9;<path class="st0" d="M317.82,155.26h2.99v15.8h-2.99V155.26z"></path>
&#x9;&#x9;<path class="st0" d="M333.35,171.25c-2.97,0-5.04-1.73-5.17-3.93h3.01c0.11,0.9,0.94,1.58,2.13,1.58c1.17,0,1.81-0.53,1.81-1.22&#xA;&#x9;&#x9;&#x9;c0-2.11-6.68-0.77-6.68-5.1c0-1.96,1.75-3.54,4.67-3.54c2.86,0,4.59,1.56,4.76,3.91h-2.86c-0.08-0.92-0.81-1.54-1.98-1.54&#xA;&#x9;&#x9;&#x9;c-1.11,0-1.69,0.45-1.69,1.13c0,2.16,6.55,0.81,6.64,5.14C338.01,169.71,336.24,171.25,333.35,171.25z"></path>
&#x9;&#x9;<path class="st0" d="M345.63,171.25c-3.44,0-5.93-2.39-5.93-6.11c0-3.74,2.43-6.11,5.93-6.11c3.42,0,5.83,2.33,5.83,5.85&#xA;&#x9;&#x9;&#x9;c0,0.38-0.02,0.77-0.09,1.15h-8.65c0.15,1.75,1.34,2.73,2.84,2.73c1.28,0,1.99-0.64,2.37-1.43h3.22&#xA;&#x9;&#x9;&#x9;C350.52,169.52,348.55,171.25,345.63,171.25z M342.74,164.03h5.61c-0.04-1.56-1.28-2.54-2.82-2.54&#xA;&#x9;&#x9;&#x9;C344.11,161.49,342.98,162.41,342.74,164.03z"></path>
&#x9;&#x9;<path class="st0" d="M356.62,171.06h-2.99v-11.83h2.99v1.84c0.75-1.22,1.98-2.01,3.63-2.01v3.14h-0.79&#xA;&#x9;&#x9;&#x9;c-1.77,0-2.84,0.68-2.84,2.97V171.06z"></path>
&#x9;&#x9;<path class="st0" d="M364.19,159.23l2.99,9.07l2.99-9.07h3.18l-4.38,11.83h-3.63l-4.36-11.83H364.19z"></path>
&#x9;&#x9;<path class="st0" d="M374.71,156.07c0-0.98,0.77-1.75,1.84-1.75c1.05,0,1.83,0.77,1.83,1.75c0,0.98-0.79,1.75-1.83,1.75&#xA;&#x9;&#x9;&#x9;C375.48,157.82,374.71,157.05,374.71,156.07z M375.03,159.23h2.99v11.83h-2.99V159.23z"></path>
&#x9;&#x9;<path class="st0" d="M386.05,159.04c2.95,0,4.93,1.54,5.57,4.18h-3.22c-0.34-1-1.13-1.64-2.37-1.64c-1.66,0-2.77,1.26-2.77,3.57&#xA;&#x9;&#x9;&#x9;s1.11,3.54,2.77,3.54c1.24,0,2.01-0.56,2.37-1.62h3.22c-0.64,2.52-2.63,4.18-5.57,4.18c-3.42,0-5.85-2.39-5.85-6.11&#xA;&#x9;&#x9;&#x9;C380.2,161.43,382.63,159.04,386.05,159.04z"></path>
&#x9;&#x9;<path class="st0" d="M398.98,171.25c-3.44,0-5.93-2.39-5.93-6.11c0-3.74,2.43-6.11,5.93-6.11c3.42,0,5.83,2.33,5.83,5.85&#xA;&#x9;&#x9;&#x9;c0,0.38-0.02,0.77-0.09,1.15h-8.65c0.15,1.75,1.34,2.73,2.84,2.73c1.28,0,1.99-0.64,2.37-1.43h3.22&#xA;&#x9;&#x9;&#x9;C403.87,169.52,401.9,171.25,398.98,171.25z M396.1,164.03h5.61c-0.04-1.56-1.28-2.54-2.82-2.54&#xA;&#x9;&#x9;&#x9;C397.46,161.49,396.33,162.41,396.1,164.03z"></path>
&#x9;&#x9;<path class="st0" d="M411.51,171.25c-2.97,0-5.04-1.73-5.17-3.93h3.01c0.11,0.9,0.94,1.58,2.13,1.58c1.17,0,1.81-0.53,1.81-1.22&#xA;&#x9;&#x9;&#x9;c0-2.11-6.68-0.77-6.68-5.1c0-1.96,1.75-3.54,4.68-3.54c2.86,0,4.59,1.56,4.76,3.91h-2.86c-0.08-0.92-0.81-1.54-1.99-1.54&#xA;&#x9;&#x9;&#x9;c-1.11,0-1.69,0.45-1.69,1.13c0,2.16,6.55,0.81,6.64,5.14C416.16,169.71,414.39,171.25,411.51,171.25z"></path>
&#x9;</g>
</g>
<g>
&#x9;<defs>
&#x9;&#x9;
&#x9;&#x9;&#x9;<rect id="SVGID_00000133526024317018411070000010237858440269198998_" x="-2032.15" y="-391.38" transform="matrix(-1.836970e-16 1 -1 -1.836970e-16 -1423.5316 1640.7662)" width="1000" height="1000"></rect>
&#x9;</defs>
&#x9;<clipPath id="SVGID_00000176739224290914140470000014659051592902034853_">
&#x9;&#x9;<use xlink:href="#SVGID_00000133526024317018411070000010237858440269198998_" style="overflow:visible;"></use>
&#x9;</clipPath>
&#x9;<g style="clip-path:url(#SVGID_00000176739224290914140470000014659051592902034853_);">
&#x9;</g>
</g>
</svg>